<svg width="137" height="122" viewBox="0 0 137 122" fill="none" xmlns="http://www.w3.org/2000/svg">
<path d="M111.934 39.3289C110.488 38.8279 109.029 38.3628 107.559 37.9348C107.806 36.9448 108.035 35.9499 108.245 34.9499C111.611 18.8669 109.484 5.89484 102.095 1.60284C95.0111 -2.51316 83.389 1.71885 71.633 11.8838C70.475 12.8878 69.3421 13.9199 68.2361 14.9819C67.4991 14.2719 66.7501 13.5748 65.9881 12.8928C53.7361 1.94385 41.4351 -2.69115 34.0261 1.56585C26.9221 5.64785 24.7841 17.8309 27.7201 33.0919C28.0121 34.6039 28.3431 36.1069 28.7121 37.6019C26.9671 38.0909 25.2831 38.6139 23.6711 39.1699C9.25107 44.1459 0.0260514 51.9879 5.13578e-05 60.1519C-0.0259486 68.5839 9.82205 77.0729 24.81 82.2489C26.025 82.6659 27.2511 83.0528 28.4861 83.4098C28.0791 85.0178 27.7181 86.6358 27.4011 88.2638C24.5081 103.243 26.693 115.15 33.753 119.252C41.044 123.487 53.3171 119.196 65.2881 108.799C66.2341 107.977 67.1831 107.107 68.1351 106.191C69.3261 107.347 70.5491 108.469 71.8031 109.558C83.3351 119.545 94.7421 123.599 101.821 119.531C109.133 115.33 111.544 102.553 108.514 86.9889C108.283 85.8009 108.015 84.5868 107.71 83.3498C108.572 83.0978 109.416 82.8379 110.242 82.5679C125.857 77.4499 136.031 69.1268 136.058 60.5818C136.084 52.3888 126.613 44.4339 111.934 39.3289Z" fill="#53C1DE"/>
<path d="M108.432 77.0448C107.687 77.2888 106.923 77.5248 106.144 77.7528C104.26 71.8518 101.977 66.0858 99.3091 60.4948C101.91 54.9948 104.14 49.3278 105.985 43.5298C107.375 43.9378 108.725 44.3668 110.025 44.8198C122.602 49.1928 130.262 55.6258 130.246 60.5638C130.23 65.8228 121.913 72.6248 108.432 77.0448ZM102.809 88.0998C104.149 94.9818 104.324 101.201 103.406 106.059C102.582 110.425 100.943 113.332 98.9251 114.492C94.6291 116.96 85.4691 113.705 75.6081 105.164C74.4771 104.185 73.3401 103.142 72.1961 102.034C76.3341 97.4818 80.1601 92.6558 83.6471 87.5888C89.8491 87.0848 96.0091 86.1558 102.083 84.8068C102.356 85.9278 102.598 87.0248 102.809 88.0998ZM46.2161 113.896C42.0221 115.363 38.6861 115.394 36.6731 114.225C32.3881 111.737 30.6351 102.175 33.1091 89.3658C33.4031 87.8518 33.7391 86.3478 34.1171 84.8518C40.1571 86.1698 46.2801 87.0758 52.4431 87.5638C56.0001 92.6358 59.8871 97.4688 64.0771 102.031C63.2301 102.845 62.3631 103.638 61.4771 104.41C56.1841 109.008 50.8841 112.264 46.2171 113.896H46.2161ZM26.7071 76.7548C20.0801 74.4658 14.6111 71.5018 10.8651 68.2738C7.50007 65.3728 5.80509 62.4988 5.81209 60.1698C5.82809 55.2168 13.2341 48.9198 25.5671 44.6638C27.1151 44.1318 28.6781 43.6458 30.2551 43.2058C32.0651 49.0788 34.2631 54.8258 36.8321 60.4098C34.1951 66.0568 31.9331 71.8718 30.0631 77.8158C28.9361 77.4898 27.8171 77.1358 26.7071 76.7548ZM33.4281 31.9938C30.9121 18.9178 32.6411 9.06481 36.9221 6.60481C41.4831 3.98481 51.5361 7.77382 62.1151 17.2268C62.7911 17.8308 63.4701 18.4638 64.1501 19.1178C59.9601 23.6238 56.0731 28.4038 52.5151 33.4238C46.4061 33.9528 40.3391 34.8758 34.3501 36.1888C34.0071 34.7978 33.7001 33.3998 33.4281 31.9928V31.9938ZM92.0711 46.6708C90.7481 44.3688 89.3761 42.0968 87.9551 39.8538C92.2951 40.4158 96.4521 41.1568 100.354 42.0608C99.0881 46.0328 97.6221 49.9388 95.9631 53.7638C94.7131 51.3738 93.4161 49.0098 92.0711 46.6708ZM68.2111 23.2838C71.0321 26.3778 73.6941 29.6128 76.1881 32.9748C70.8311 32.7048 65.4711 32.6868 60.1071 32.9208C62.7611 29.4428 65.4791 26.2138 68.2111 23.2838ZM44.0511 46.5588C42.7091 48.8698 41.4211 51.2108 40.1881 53.5828C38.5081 49.5628 37.0721 45.6118 35.9021 41.7958C39.7871 40.9398 43.9291 40.2428 48.2431 39.7178C46.7931 41.9648 45.3951 44.2458 44.0511 46.5588ZM48.2361 81.3058C44.0261 80.8358 39.8431 80.1498 35.7031 79.2508C36.9171 75.3748 38.4101 71.3478 40.1511 67.2528C41.3741 69.6338 42.6531 71.9838 43.9871 74.3048C45.3471 76.6718 46.7641 79.0058 48.2361 81.3058ZM68.1371 97.8608C65.3911 94.8798 62.6541 91.5828 59.9811 88.0388C62.5861 88.1488 65.2391 88.2088 67.9411 88.2178C70.7151 88.2268 73.4531 88.1738 76.1551 88.0608C73.6511 91.4628 70.9751 94.7338 68.1371 97.8608ZM95.9761 67.2198C97.6921 71.1338 99.2051 75.1328 100.507 79.2038C96.3141 80.1318 92.0751 80.8408 87.8081 81.3268C89.2531 79.0518 90.6531 76.7478 92.0071 74.4168C93.3831 72.0478 94.7061 69.6488 95.9761 67.2198ZM86.9811 71.4968C84.9091 75.0708 82.7221 78.5748 80.4201 82.0078C76.3831 82.2838 72.2111 82.4188 67.9601 82.4058C63.7261 82.3928 59.6081 82.2478 55.6421 81.9778C53.3041 78.5398 51.0991 75.0168 49.0261 71.4088C46.9641 67.8228 45.0411 64.1628 43.2561 60.4278C45.0591 56.7068 46.9991 53.0558 49.0781 49.4778V49.4788C51.1551 45.9028 53.3651 42.4088 55.7081 38.9978C59.7561 38.7038 63.9051 38.5568 68.0991 38.5708C72.3111 38.5838 76.4651 38.7578 80.5091 39.0798C82.8061 42.4978 84.9801 45.9938 87.0321 49.5668C89.0931 53.1478 91.0371 56.7928 92.8631 60.5028C91.0331 64.2358 89.0731 67.9008 86.9821 71.4968H86.9811ZM99.1761 6.6288C103.724 9.2708 105.463 19.8728 102.556 33.7588C102.366 34.6638 102.159 35.5648 101.936 36.4618C95.9461 35.0848 89.8721 34.1058 83.7531 33.5308C80.2621 28.4818 76.4351 23.6738 72.2971 19.1408C73.3201 18.1608 74.3651 17.2078 75.4351 16.2808C85.5081 7.56981 94.9071 4.1488 99.1761 6.6288Z" fill="white"/>
<path d="M68.0681 48.2178C70.4711 48.2248 72.8171 48.9448 74.8111 50.2858C76.8051 51.6278 78.3561 53.5298 79.2691 55.7528C80.1821 57.9758 80.4151 60.4198 79.9381 62.7748C79.4621 65.1298 78.2981 67.2918 76.5931 68.9858C74.8891 70.6788 72.7201 71.8298 70.3621 72.2908C68.0041 72.7518 65.5621 72.5038 63.3441 71.5768C61.1271 70.6508 59.2351 69.0868 57.9061 67.0848C56.5771 65.0828 55.8721 62.7318 55.8801 60.3288C55.8851 58.7328 56.2041 57.1538 56.8191 55.6818C57.4351 54.2098 58.3341 52.8738 59.4651 51.7488C60.5971 50.6238 61.9391 49.7338 63.4151 49.1278C64.8911 48.5218 66.4721 48.2128 68.0681 48.2178Z" fill="#53C1DE"/>
</svg>
