<?xml version="1.0" encoding="iso-8859-1"?>
<!-- Generator: Adobe Illustrator 19.0.0, SVG Export Plug-In . SVG Version: 6.00 Build 0)  -->
<svg version="1.1" id="Capa_1" xmlns="http://www.w3.org/2000/svg" xmlns:xlink="http://www.w3.org/1999/xlink" x="0px" y="0px"
	 viewBox="0 0 512 512" style="enable-background:new 0 0 512 512;" xml:space="preserve">
<path style="fill:#FEC478;" d="M512,512H0V0h512V512z"/>
<path style="fill:#FEA832;" d="M512,512H256V0h256V512z"/>
<path style="fill:#994C0F;" d="M482,482H30V30h452V482z"/>
<path style="fill:#713708;" d="M482,482H256V30h226V482z"/>
<path style="fill:#FEC478;" d="M207.502,181.6h29.28l64.8,170.4h-34.08l-15.84-42.48h-59.52l-15.6,42.48h-34.08L207.502,181.6z
	 M245.662,286.24l-23.52-66.96l-24.48,66.96H245.662z"/>
<g>
	<path style="fill:#FEA832;" d="M317.182,208.72V176.8h32.159v31.92H317.182z M317.182,352V226.24h32.159V352H317.182z"/>
	<polygon style="fill:#FEA832;" points="256,232.137 256,321.155 267.502,352 301.582,352 	"/>
</g>
<g>
</g>
<g>
</g>
<g>
</g>
<g>
</g>
<g>
</g>
<g>
</g>
<g>
</g>
<g>
</g>
<g>
</g>
<g>
</g>
<g>
</g>
<g>
</g>
<g>
</g>
<g>
</g>
<g>
</g>
</svg>
