<svg width="64" height="64" xmlns="http://www.w3.org/2000/svg">

 <g>
  <title>background</title>
  <rect fill="none" id="canvas_background" height="402" width="582" y="-1" x="-1"/>
 </g>
 <g>
  <title>Layer 1</title>
  <path fill="#ffffff" id="Fill-124" d="m32.1,56c-13.2,0 -23.9,-10.7 -23.9,-23.9s10.7,-23.9 23.9,-23.9s23.9,10.7 23.9,23.9s-10.7,23.9 -23.9,23.9l0,0zm0,-45.2c-11.7,0 -21.3,9.6 -21.3,21.3c0,11.7 9.6,21.3 21.3,21.3s21.3,-9.6 21.3,-21.3c0,-11.8 -9.6,-21.3 -21.3,-21.3l0,0z" class="st0"/>
  <path fill="#ffffff" id="Fill-125" d="m25,44.4l0,-24.7l21.2,12.4l-21.2,12.3l0,0zm2.8,-19.8l0,14.9l12.7,-7.4l-12.7,-7.5l0,0z" class="st0"/>
 </g>
</svg>